<?xml version="1.0" standalone="no"?>
<!DOCTYPE svg PUBLIC "-//W3C//DTD SVG 20010904//EN"
 "http://www.w3.org/TR/2001/REC-SVG-20010904/DTD/svg10.dtd">
<svg version="1.0" xmlns="http://www.w3.org/2000/svg"
 width="566.000000pt" height="519.000000pt" viewBox="0 0 566.000000 519.000000"
 preserveAspectRatio="xMidYMid meet">

<g transform="translate(0.000000,519.000000) scale(0.100000,-0.100000)"
fill="#000000" stroke="none">
<path d="M2314 5149 c3 -16 37 -222 76 -457 38 -235 76 -465 85 -512 8 -47 20
-118 26 -157 l12 -73 413 0 413 0 10 53 c16 83 191 1151 191 1165 0 9 -140 12
-616 12 l-616 0 6 -31z"/>
<path d="M2510 3545 l0 -205 415 0 415 0 0 205 0 205 -415 0 -415 0 0 -205z"/>
<path d="M2737 3188 c-8 -13 -22 -72 -31 -133 -22 -140 -23 -142 -49 -149 -12
-3 -46 -22 -76 -41 l-55 -36 -123 46 c-76 29 -133 45 -146 41 -32 -8 -212
-316 -203 -349 3 -12 50 -59 106 -105 l100 -82 0 -94 0 -95 -100 -83 c-56 -46
-103 -93 -107 -105 -7 -32 172 -341 202 -349 13 -3 75 14 147 41 l125 46 54
-36 c30 -20 64 -38 76 -41 26 -7 27 -9 49 -149 25 -166 8 -155 239 -155 232 0
214 -12 241 164 15 97 22 121 39 130 11 7 48 29 81 49 l62 37 120 -46 c83 -32
128 -45 146 -40 34 8 211 315 202 350 -3 14 -48 58 -106 105 l-100 82 0 94 0
94 100 82 c58 47 103 91 106 105 9 35 -168 342 -202 350 -18 5 -63 -8 -146
-40 l-120 -46 -62 37 c-33 20 -70 42 -81 49 -17 9 -24 33 -39 130 -27 176 -9
164 -241 164 -191 0 -195 0 -208 -22z"/>
<path d="M195 3148 c-7 -34 -165 -1161 -165 -1182 0 -17 12 -18 193 -12 105 3
307 8 447 11 292 6 594 15 597 18 1 1 27 184 59 405 48 335 55 405 44 412 -14
8 -92 34 -345 111 -71 22 -164 51 -205 65 -41 13 -131 42 -200 63 -69 22 -190
60 -269 85 -79 25 -145 46 -147 46 -2 0 -6 -10 -9 -22z"/>
<path d="M1585 2757 c-7 -22 -113 -802 -110 -806 4 -3 399 -60 402 -57 6 5
115 807 111 812 -4 3 -82 16 -175 29 -92 14 -181 27 -196 30 -17 3 -29 0 -32
-8z"/>
<path d="M3851 1681 c-143 -171 -261 -314 -261 -319 0 -5 68 -66 151 -136 99
-83 155 -124 164 -119 7 5 75 83 151 174 118 141 315 375 361 430 12 15 -2 30
-129 135 -79 66 -150 125 -159 132 -15 11 -49 -26 -278 -297z"/>
<path d="M4457 1443 c-69 -82 -186 -221 -261 -309 -75 -89 -136 -167 -136
-172 0 -6 43 -62 96 -124 54 -62 116 -135 139 -163 24 -27 103 -120 176 -206
74 -85 190 -221 258 -302 105 -125 126 -145 139 -134 8 6 99 111 201 232 356
422 455 541 518 614 50 59 61 77 51 86 -7 7 -114 72 -238 145 -124 73 -301
179 -395 235 -296 178 -411 245 -418 245 -3 0 -62 -66 -130 -147z"/>
</g>
</svg>
